<svg width="133" height="69" viewBox="0 0 133 69" fill="none" xmlns="http://www.w3.org/2000/svg">
<g clip-path="url(#clip0_21_186)">
<path d="M18.2 23.2C18 23.2 17.3 23.8 17.1 23.5C16.9 23.1 16.2 19.7 14.4 19.7C12.6 19.7 5.3 27.9 4.3 35.4C3.3 42.9 12.4 30 14.2 27.1C16 24.2 19.3 19.7 20.7 19.8C22.1 19.9 21.2 24.1 20.7 27C20.2 29.8 19.7 35.1 20.5 35.1C21.3 35.1 25.8 30.8 29 22.9C32.2 15 35.5 5.4 36 5C36.5 4.6 37.6 3.3 38.7 3.4C39.8 3.6 40.3 4.8 39.5 7C38.5 9.1 32.3 25 32.3 25L30.8 25.6C30.8 25.6 39.5 15.3 43.1 15.4C46.7 15.5 43.6 20 40.7 22.8C37.8 25.6 31.8 31 31.8 31L26.8 36.8L27.6 31.6L31.2 28.5C31.2 28.5 36.6 28.6 41.3 33C46 37.4 51.4 42.6 53.6 44.1C55.8 45.6 57.6 47 56.5 48.4C55.4 49.8 52.4 50.2 50.4 48.7C48.4 47.2 43.8 43.9 41.2 41.2C38.6 38.5 34.2 34.3 31.2 33.8C28.2 33.3 28.3 32.4 28.3 32.4L31.5 32.6C31.5 32.6 31.6 34.2 29.2 37.2C26.8 40.2 24.4 40.9 23.9 39.8C23.4 38.7 24.3 33.4 24.3 33.4L25.3 34.8C25.3 34.8 22.5 39.6 18.2 39.3C13.9 39 14.9 33.8 15.5 28.6C16.7 28.4 16.7 29.1 16.7 29.1C16.7 29.1 9.4 41.8 2.5 41.7C-4.4 41.5 4.1 16 15.8 16C19.6 16 20.4 18 19.7 20.6C19 23.2 18.2 23.2 18.2 23.2Z" fill="#D3D3D3"/>
<path d="M57.1 15C55.9 15.3 48.5 19.5 48.1 28.6C47.6 37.5 55.2 30 58.5 25.2C57.7 22.8 56.9 24.6 56.9 24.6C56.9 24.6 55.6 34.6 61.9 35C68.3 35.3 72.5 25 72.5 25L69.7 26.1C69.7 26.1 68.5 34 75.4 34C82.3 34 88.9 25.9 89.6 21C90.2 16.2 84.2 17 80.9 29.1C77.6 41.2 71 63 71 66.2C71 69.4 72.5 69.5 74 68.4C75.5 67.2 76.3 66.6 76.6 61.6C76.9 56.6 81.6 41.2 82.8 37.2C84 33.1 86.9 22.7 86.9 22.7C86.9 22.7 80.9 30.2 78.1 29.6C75.3 29 74.9 26.9 74.9 23.7C74.9 20.5 74.8 18.6 72.9 19.9C71.1 21.1 70 22.3 69.7 25.7C70.9 25.5 71.3 23 71.3 23C71.3 23 69.7 24.9 67.9 27.3C66.1 29.7 63.6 31.8 62.9 29.1C62.2 26.4 63.3 18.9 62.7 18C62.1 17.1 59.6 16.1 58.4 18.6C55.5 25.3 51.6 28.7 51.6 28.7L53.4 28.8C53.4 28.8 51.5 27.6 52.5 24.4C53.1 22.5 54.5 18.9 55.6 19.1C56.7 19.3 57.5 20.4 58.3 19.7C59.1 19 60.2 14.1 57.1 15Z" fill="#D3D3D3"/>
<path d="M96.8 4.5C96.8 4.5 96 4.7 95.2 5.4C94 6.3 92.5 7.9 92.6 10.5C92.7 14.8 98.1 13.2 100.1 9.7C102.3 6.3 102.3 0.700001 94.8 0.100001C87.4 -0.399999 87.2 5.1 88.8 4.8C90.4 4.6 93.1 3.2 95.9 6C97.7 5.7 96.8 4.5 96.8 4.5Z" fill="#D3D3D3"/>
<path d="M96.6 16.2C94.9 16.4 93.8 17.2 92.9 22.8C92 28.4 91.2 33.8 92.4 33.9C93.5 34 96.2 33.7 96.6 28.8C97 24 97.7 18.9 97.6 17.9C97.4 16.9 97.2 16.2 96.6 16.2Z" fill="#D3D3D3"/>
<path d="M109.5 7.8C108 7.8 106.6 9.6 105.9 13.6C105.4 17.6 102.1 27.5 101.8 28.4C101.5 29.3 101.5 30 102.8 29.9C104.1 29.8 105 29.5 106.6 27.2C109.4 24.5 112.4 22.8 113.5 21.4C114.6 20 116.1 18.4 115.7 17.6C115.3 16.8 114.3 16.4 113.4 16.8C112.5 17.2 108.8 19.5 108 20C107.4 20.5 108.4 22.4 108.4 22.4L109.5 20.2C109.5 20.2 110.4 14.2 110.6 11.7C110.8 9.3 110.8 7.8 109.5 7.8Z" fill="#D3D3D3"/>
<path d="M104.8 27.1C104.8 27.1 108.1 27.2 116.5 32.4C124.9 37.6 129.6 40.8 131.4 39.1C133.1 37.5 133.6 34.7 132.6 34.5C131.7 34.3 131 34.7 129.9 35.4C128.8 36.1 131.3 36.3 131.3 36.3L131.7 35.2C131.7 35.2 115.9 24.9 109.1 24.4C105.1 25.9 104.8 27.1 104.8 27.1Z" fill="#D3D3D3"/>
<path d="M63.5 47.4C64 46.5 69.4 39.2 97.7 41.5C110 42.7 123.2 49.1 122.8 51.4C122.4 53.7 119.9 53.2 117.6 52C115.3 50.8 106.1 46 91.8 44.8C77.5 43.6 68.5 46.4 66 47.7C63.4 48.9 62.9 48.2 63.5 47.4Z" fill="#D3D3D3"/>
</g>
<defs>
<clipPath id="clip0_21_186">
<rect width="132.6" height="69" fill="white"/>
</clipPath>
</defs>
</svg>
