<?xml version="1.0" encoding="utf-8"?>
<!-- Generator: Adobe Illustrator 23.0.3, SVG Export Plug-In . SVG Version: 6.00 Build 0)  -->
<svg version="1.1" id="Layer_1" xmlns="http://www.w3.org/2000/svg" xmlns:xlink="http://www.w3.org/1999/xlink" x="0px" y="0px"
	 viewBox="0 0 132.6 69" style="enable-background:new 0 0 132.6 69;" xml:space="preserve">
<style type="text/css">
	.st0{fill:#374151;}
</style>
<path class="st0" d="M18.2,23.2c-0.2,0-0.9,0.6-1.1,0.3c-0.2-0.4-0.9-3.8-2.7-3.8S5.3,27.9,4.3,35.4s8.1-5.4,9.9-8.3
	s5.1-7.4,6.5-7.3s0.5,4.3,0,7.2c-0.5,2.8-1,8.1-0.2,8.1s5.3-4.3,8.5-12.2S35.5,5.4,36,5s1.6-1.7,2.7-1.6c1.1,0.2,1.6,1.4,0.8,3.6
	c-1,2.1-7.2,18-7.2,18l-1.5,0.6c0,0,8.7-10.3,12.3-10.2s0.5,4.6-2.4,7.4S31.8,31,31.8,31l-5,5.8l0.8-5.2l3.6-3.1
	c0,0,5.4,0.1,10.1,4.5s10.1,9.6,12.3,11.1s4,2.9,2.9,4.3s-4.1,1.8-6.1,0.3s-6.6-4.8-9.2-7.5s-7-6.9-10-7.4s-2.9-1.4-2.9-1.4l3.2,0.2
	c0,0,0.1,1.6-2.3,4.6s-4.8,3.7-5.3,2.6s0.4-6.4,0.4-6.4l1,1.4c0,0-2.8,4.8-7.1,4.5s-3.3-5.5-2.7-10.7c1.2-0.2,1.2,0.5,1.2,0.5
	S9.4,41.8,2.5,41.7C-4.4,41.5,4.1,16,15.8,16c3.8,0,4.6,2,3.9,4.6S18.2,23.2,18.2,23.2z"/>
<path class="st0" d="M57.1,15c-1.2,0.3-8.6,4.5-9,13.6c-0.5,8.9,7.1,1.4,10.4-3.4c-0.8-2.4-1.6-0.6-1.6-0.6s-1.3,10,5,10.4
	c6.4,0.3,10.6-10,10.6-10l-2.8,1.1c0,0-1.2,7.9,5.7,7.9s13.5-8.1,14.2-13c0.6-4.8-5.4-4-8.7,8.1S71,63,71,66.2s1.5,3.3,3,2.2
	c1.5-1.2,2.3-1.8,2.6-6.8s5-20.4,6.2-24.4c1.2-4.1,4.1-14.5,4.1-14.5s-6,7.5-8.8,6.9s-3.2-2.7-3.2-5.9s-0.1-5.1-2-3.8
	c-1.8,1.2-2.9,2.4-3.2,5.8c1.2-0.2,1.6-2.7,1.6-2.7s-1.6,1.9-3.4,4.3s-4.3,4.5-5,1.8s0.4-10.2-0.2-11.1s-3.1-1.9-4.3,0.6
	c-2.9,6.7-6.8,10.1-6.8,10.1l1.8,0.1c0,0-1.9-1.2-0.9-4.4c0.6-1.9,2-5.5,3.1-5.3s1.9,1.3,2.7,0.6S60.2,14.1,57.1,15L57.1,15z"/>
<path class="st0" d="M96.8,4.5c0,0-0.8,0.2-1.6,0.9c-1.2,0.9-2.7,2.5-2.6,5.1c0.1,4.3,5.5,2.7,7.5-0.8c2.2-3.4,2.2-9-5.3-9.6
	c-7.4-0.5-7.6,5-6,4.7c1.6-0.2,4.3-1.6,7.1,1.2C97.7,5.7,96.8,4.5,96.8,4.5z"/>
<path class="st0" d="M96.6,16.2c-1.7,0.2-2.8,1-3.7,6.6s-1.7,11-0.5,11.1c1.1,0.1,3.8-0.2,4.2-5.1c0.4-4.8,1.1-9.9,1-10.9
	C97.4,16.9,97.2,16.2,96.6,16.2z"/>
<path class="st0" d="M109.5,7.8c-1.5,0-2.9,1.8-3.6,5.8c-0.5,4-3.8,13.9-4.1,14.8s-0.3,1.6,1,1.5s2.2-0.4,3.8-2.7
	c2.8-2.7,5.8-4.4,6.9-5.8s2.6-3,2.2-3.8s-1.4-1.2-2.3-0.8s-4.6,2.7-5.4,3.2c-0.6,0.5,0.4,2.4,0.4,2.4l1.1-2.2c0,0,0.9-6,1.1-8.5
	C110.8,9.3,110.8,7.8,109.5,7.8z"/>
<path class="st0" d="M104.8,27.1c0,0,3.3,0.1,11.7,5.3s13.1,8.4,14.9,6.7c1.7-1.6,2.2-4.4,1.2-4.6c-0.9-0.2-1.6,0.2-2.7,0.9
	s1.4,0.9,1.4,0.9l0.4-1.1c0,0-15.8-10.3-22.6-10.8C105.1,25.9,104.8,27.1,104.8,27.1L104.8,27.1z"/>
<path class="st0" d="M63.5,47.4c0.5-0.9,5.9-8.2,34.2-5.9c12.3,1.2,25.5,7.6,25.1,9.9s-2.9,1.8-5.2,0.6s-11.5-6-25.8-7.2
	S68.5,46.4,66,47.7C63.4,48.9,62.9,48.2,63.5,47.4z"/>
</svg>
