<?xml version="1.0" encoding="UTF-8"?>
<svg enable-background="new 0 0 132.6 69" version="1.1" viewBox="0 0 132.6 69" xml:space="preserve" xmlns="http://www.w3.org/2000/svg">
<style type="text/css">
	.st0{fill:#1E4489;}
</style>

	<path class="st0" d="m18.2 23.2c-0.2 0-0.9 0.6-1.1 0.3-0.2-0.4-0.9-3.8-2.7-3.8s-9.1 8.2-10.1 15.7 8.1-5.4 9.9-8.3 5.1-7.4 6.5-7.3 0.5 4.3 0 7.2c-0.5 2.8-1 8.1-0.2 8.1s5.3-4.3 8.5-12.2 6.5-17.5 7-17.9 1.6-1.7 2.7-1.6c1.1 0.2 1.6 1.4 0.8 3.6-1 2.1-7.2 18-7.2 18l-1.5 0.6s8.7-10.3 12.3-10.2 0.5 4.6-2.4 7.4-8.9 8.2-8.9 8.2l-5 5.8 0.8-5.2 3.6-3.1s5.4 0.1 10.1 4.5 10.1 9.6 12.3 11.1 4 2.9 2.9 4.3-4.1 1.8-6.1 0.3-6.6-4.8-9.2-7.5-7-6.9-10-7.4-2.9-1.4-2.9-1.4l3.2 0.2s0.1 1.6-2.3 4.6-4.8 3.7-5.3 2.6 0.4-6.4 0.4-6.4l1 1.4s-2.8 4.8-7.1 4.5-3.3-5.5-2.7-10.7c1.2-0.2 1.2 0.5 1.2 0.5s-7.3 12.7-14.2 12.6c-6.9-0.2 1.6-25.7 13.3-25.7 3.8 0 4.6 2 3.9 4.6s-1.5 2.6-1.5 2.6z"/>
	<path class="st0" d="m57.1 15c-1.2 0.3-8.6 4.5-9 13.6-0.5 8.9 7.1 1.4 10.4-3.4-0.8-2.4-1.6-0.6-1.6-0.6s-1.3 10 5 10.4c6.4 0.3 10.6-10 10.6-10l-2.8 1.1s-1.2 7.9 5.7 7.9 13.5-8.1 14.2-13c0.6-4.8-5.4-4-8.7 8.1s-9.9 33.9-9.9 37.1 1.5 3.3 3 2.2c1.5-1.2 2.3-1.8 2.6-6.8s5-20.4 6.2-24.4c1.2-4.1 4.1-14.5 4.1-14.5s-6 7.5-8.8 6.9-3.2-2.7-3.2-5.9-0.1-5.1-2-3.8c-1.8 1.2-2.9 2.4-3.2 5.8 1.2-0.2 1.6-2.7 1.6-2.7s-1.6 1.9-3.4 4.3-4.3 4.5-5 1.8 0.4-10.2-0.2-11.1-3.1-1.9-4.3 0.6c-2.9 6.7-6.8 10.1-6.8 10.1l1.8 0.1s-1.9-1.2-0.9-4.4c0.6-1.9 2-5.5 3.1-5.3s1.9 1.3 2.7 0.6 1.9-5.6-1.2-4.7z"/>
	<path class="st0" d="m96.8 4.5s-0.8 0.2-1.6 0.9c-1.2 0.9-2.7 2.5-2.6 5.1 0.1 4.3 5.5 2.7 7.5-0.8 2.2-3.4 2.2-9-5.3-9.6-7.4-0.5-7.6 5-6 4.7 1.6-0.2 4.3-1.6 7.1 1.2 1.8-0.3 0.9-1.5 0.9-1.5z"/>
	<path class="st0" d="m96.6 16.2c-1.7 0.2-2.8 1-3.7 6.6s-1.7 11-0.5 11.1c1.1 0.1 3.8-0.2 4.2-5.1 0.4-4.8 1.1-9.9 1-10.9-0.2-1-0.4-1.7-1-1.7z"/>
	<path class="st0" d="m109.5 7.8c-1.5 0-2.9 1.8-3.6 5.8-0.5 4-3.8 13.9-4.1 14.8s-0.3 1.6 1 1.5 2.2-0.4 3.8-2.7c2.8-2.7 5.8-4.4 6.9-5.8s2.6-3 2.2-3.8-1.4-1.2-2.3-0.8-4.6 2.7-5.4 3.2c-0.6 0.5 0.4 2.4 0.4 2.4l1.1-2.2s0.9-6 1.1-8.5c0.2-2.4 0.2-3.9-1.1-3.9z"/>
	<path class="st0" d="m104.8 27.1s3.3 0.1 11.7 5.3 13.1 8.4 14.9 6.7c1.7-1.6 2.2-4.4 1.2-4.6-0.9-0.2-1.6 0.2-2.7 0.9s1.4 0.9 1.4 0.9l0.4-1.1s-15.8-10.3-22.6-10.8c-4 1.5-4.3 2.7-4.3 2.7z"/>
	<path class="st0" d="m63.5 47.4c0.5-0.9 5.9-8.2 34.2-5.9 12.3 1.2 25.5 7.6 25.1 9.9s-2.9 1.8-5.2 0.6-11.5-6-25.8-7.2-23.3 1.6-25.8 2.9c-2.6 1.2-3.1 0.5-2.5-0.3z"/>

</svg>
